<svg id="svg" version="1.1" xmlns="http://www.w3.org/2000/svg" xmlns:xlink="http://www.w3.org/1999/xlink" width="400" height="400" viewBox="0, 0, 400,400"><g id="svgg"><path id="path0" d="M244.611 225.500 C 244.828 226.755,247.200 249.635,247.200 250.477 C 247.200 250.781,245.985 249.889,244.500 248.494 C 233.581 238.243,229.492 237.447,207.200 241.233 C 178.775 246.061,166.092 249.178,158.057 253.311 C 155.559 254.596,153.468 255.592,153.411 255.524 C 153.354 255.456,154.266 248.650,155.438 240.400 C 156.609 232.150,157.575 225.279,157.584 225.131 C 157.631 224.346,144.590 230.301,138.185 233.989 C 130.041 238.680,94.100 261.391,92.400 262.922 C 92.070 263.219,90.068 264.736,87.950 266.293 C 79.265 272.680,69.111 282.444,70.113 283.446 C 70.229 283.562,99.596 296.397,135.373 311.969 L 200.422 340.280 266.911 312.714 C 303.480 297.553,333.555 284.996,333.744 284.810 C 334.604 283.965,328.650 277.273,323.000 272.733 C 316.712 267.680,310.655 263.557,294.600 253.399 C 289.100 249.920,280.280 244.253,275.000 240.808 C 262.137 232.413,257.285 229.688,248.720 226.049 C 244.115 224.092,244.373 224.126,244.611 225.500 " stroke="none" fill="#fbc34c" fill-rule="evenodd"></path><path id="path1" d="M188.600 30.438 C 88.032 37.190,15.225 130.193,32.625 229.680 C 35.527 246.273,42.863 267.881,49.355 278.959 L 50.398 280.738 71.132 271.814 C 95.514 261.319,92.618 262.737,101.261 257.071 C 128.959 238.916,143.040 230.796,156.060 225.471 C 157.831 224.747,157.438 226.526,160.206 206.693 C 162.535 189.998,162.652 189.411,163.865 188.319 C 166.780 185.694,179.094 182.882,190.200 182.304 L 192.200 182.200 192.302 142.900 L 192.404 103.600 183.002 103.600 L 173.600 103.600 173.600 94.200 L 173.600 84.800 200.400 84.800 L 227.200 84.800 227.200 94.200 L 227.200 103.600 217.800 103.600 L 208.400 103.600 208.400 142.800 L 208.400 182.000 209.300 182.004 C 218.154 182.045,232.941 184.626,237.676 186.957 C 240.971 188.580,240.973 188.586,241.970 199.200 C 242.435 204.150,243.198 211.818,243.666 216.241 L 244.517 224.282 248.159 225.806 C 256.773 229.411,262.100 232.389,275.000 240.808 C 280.280 244.253,289.100 249.920,294.600 253.399 C 310.806 263.653,316.986 267.865,322.871 272.668 C 325.403 274.735,327.335 275.800,333.871 278.736 C 343.766 283.179,347.475 284.800,347.745 284.800 C 349.163 284.800,359.181 261.981,362.625 250.909 C 398.105 136.823,307.814 22.434,188.600 30.438 M186.400 94.200 L 186.400 96.800 200.400 96.800 L 214.400 96.800 214.400 94.200 L 214.400 91.600 200.400 91.600 L 186.400 91.600 186.400 94.200 M320.589 320.500 L 317.800 323.400 320.700 320.611 C 323.394 318.020,323.783 317.600,323.489 317.600 C 323.428 317.600,322.123 318.905,320.589 320.500 M79.600 320.600 C 80.795 321.810,81.863 322.800,81.973 322.800 C 82.083 322.800,81.195 321.810,80.000 320.600 C 78.805 319.390,77.737 318.400,77.627 318.400 C 77.517 318.400,78.405 319.390,79.600 320.600 " stroke="none" fill="#b4dbf3" fill-rule="evenodd"></path><path id="path2" d="M72.000 271.527 C 60.890 276.318,51.475 280.362,51.078 280.515 C 48.265 281.594,67.221 307.740,80.154 320.619 C 155.800 395.954,281.270 383.879,341.093 295.507 C 344.289 290.786,347.716 285.183,347.525 284.992 C 347.422 284.889,328.628 276.435,326.982 275.751 C 326.751 275.655,327.689 276.754,329.064 278.192 C 332.100 281.364,334.211 284.351,333.744 284.810 C 333.555 284.996,303.480 297.553,266.911 312.714 L 200.422 340.280 135.373 311.969 C 99.596 296.397,70.229 283.562,70.113 283.446 C 69.034 282.367,81.138 270.984,89.904 264.835 C 94.096 261.895,95.919 261.213,72.000 271.527 " stroke="none" fill="#a41c24" fill-rule="evenodd"></path><path id="path3" d="M173.600 94.200 L 173.600 103.600 183.002 103.600 L 192.404 103.600 192.302 142.900 L 192.200 182.200 190.200 182.304 C 175.171 183.086,163.441 186.586,162.565 190.550 C 162.161 192.380,153.282 255.378,153.408 255.524 C 153.467 255.592,155.559 254.596,158.057 253.311 C 166.092 249.178,178.775 246.061,207.200 241.233 C 229.492 237.447,233.581 238.243,244.500 248.494 C 245.985 249.889,247.200 250.795,247.200 250.508 C 247.200 250.220,245.850 237.080,244.200 221.307 C 242.550 205.534,241.200 191.987,241.200 191.203 C 241.200 188.369,238.439 186.543,231.600 184.853 C 226.600 183.617,214.147 182.026,209.300 182.004 L 208.400 182.000 208.400 142.800 L 208.400 103.600 217.800 103.600 L 227.200 103.600 227.200 94.200 L 227.200 84.800 200.400 84.800 L 173.600 84.800 173.600 94.200 M214.400 94.200 L 214.400 96.800 200.400 96.800 L 186.400 96.800 186.400 94.200 L 186.400 91.600 200.400 91.600 L 214.400 91.600 214.400 94.200 " stroke="none" fill="#3c74b4" fill-rule="evenodd"></path><path id="path4" d="M184.800 11.240 C 38.960 23.922,-38.843 189.402,44.861 308.876 C 133.972 436.068,331.028 407.330,380.001 260.000 C 422.723 131.480,319.200 -0.447,184.800 11.240 M211.525 30.420 C 334.577 39.225,407.781 170.275,350.715 279.600 C 330.870 317.619,298.062 345.886,256.273 360.973 C 251.010 362.873,250.295 363.086,241.400 365.387 C 191.349 378.335,135.594 366.302,94.512 333.687 C 89.793 329.940,79.829 321.018,77.818 318.739 C 77.169 318.003,75.009 315.587,73.018 313.371 C 33.530 269.400,20.096 206.656,37.868 149.200 C 60.872 74.829,133.916 24.867,211.525 30.420 " stroke="none" fill="#fbfbfb" fill-rule="evenodd"></path></g></svg>